<svg xmlns="http://www.w3.org/2000/svg" viewBox="0 0 100 100">
  <circle cx="26" cy="26" r="13" fill="#c68958" />
  <circle cx="74" cy="26" r="13" fill="#c68958" />
  <circle cx="26" cy="27" r="6.5" fill="#f2cfa0" />
  <circle cx="74" cy="27" r="6.5" fill="#f2cfa0" />
  <circle cx="50" cy="54" r="34" fill="#d9a066" />
  <ellipse cx="27" cy="60" rx="7" ry="5" fill="#ffb3c1" opacity="0.7" />
  <ellipse cx="73" cy="60" rx="7" ry="5" fill="#ffb3c1" opacity="0.7" />
  <ellipse cx="50" cy="64" rx="17" ry="13" fill="#f6dcb8" />
  <ellipse cx="50" cy="58.5" rx="5.5" ry="4" fill="#5b3a29" />
  <path d="M40 68 Q50 80 60 68" stroke="#5b3a29" stroke-width="2.5" fill="none" stroke-linecap="round" />
  <circle cx="37" cy="46" r="4.5" fill="#2b1c14" />
  <circle cx="63" cy="46" r="4.5" fill="#2b1c14" />
  <circle cx="38.5" cy="44.5" r="1.4" fill="#fff" />
  <circle cx="64.5" cy="44.5" r="1.4" fill="#fff" />
  <path d="M28 82 Q50 92 72 82 L72 76 Q50 84 28 76 Z" fill="#e0453c" />
  <circle cx="36" cy="80" r="1.6" fill="#fff" />
  <circle cx="50" cy="84" r="1.6" fill="#fff" />
  <circle cx="64" cy="80" r="1.6" fill="#fff" />
</svg>
